# xmcd
#
# Track frame offsets:
#	150
#	13954
#	31697
#	45087
#	63257
#	76909
#	92992
#	108262
#	125252
#	142061
#	156329
#	175178
#
# Disc length: 2558 seconds
#
# Revision: 1
# Processed by: cddbd v1.5.2PL0 Copyright (c) Steve Scherf et al.
# Submitted via: audiograbber 1.83.01
#
DISCID=9109fc0c
DTITLE=Katrine Falkenberg - A Little Invitation
DYEAR=2007
DGENRE=R&B
TTITLE0=A Little Invitation
TTITLE1=Callo It A Day
TTITLE2=Butterfly
TTITLE3=Riding Out The Storm
TTITLE4=It's A Beautiful Day
TTITLE5=Cuts Like A Knife
TTITLE6=I'm A Believer
TTITLE7=Lucky Girl
TTITLE8=Missing You (My Bill)
TTITLE9=Spreading Your Wings
TTITLE10=Follow Your Heart
TTITLE11=Roses
EXTD=
EXTT0=
EXTT1=
EXTT2=
EXTT3=
EXTT4=
EXTT5=
EXTT6=
EXTT7=
EXTT8=
EXTT9=
EXTT10=
EXTT11=
PLAYORDER=
